<?xml version="1.0" standalone="no"?>
<!DOCTYPE svg PUBLIC "-//W3C//DTD SVG 20010904//EN"
 "http://www.w3.org/TR/2001/REC-SVG-20010904/DTD/svg10.dtd">
<svg version="1.0" xmlns="http://www.w3.org/2000/svg"
 width="91.000000pt" height="91.000000pt" viewBox="0 0 91.000000 91.000000"
 preserveAspectRatio="xMidYMid meet">

<g transform="translate(0.000000,91.000000) scale(0.100000,-0.100000)"
fill="rgb(255,255,255)" stroke="none">
<path d="M227 682 c-119 -119 -217 -222 -217 -227 0 -13 432 -445 445 -445 13
0 445 432 445 445 0 13 -432 445 -445 445 -6 0 -108 -98 -228 -218z m136 11
c-72 -76 -140 -147 -152 -157 l-22 -20 103 -103 103 -103 62 62 c63 62 63 62
83 42 20 -19 20 -20 -65 -104 l-85 -85 -145 145 -145 145 177 177 c176 176
178 178 197 158 19 -19 18 -20 -111 -157z m485 -260 l-22 -24 -156 156 -155
155 -103 -103 -102 -102 62 -63 c62 -62 63 -62 43 -82 -20 -19 -20 -19 -102
56 -46 42 -83 81 -83 87 0 7 64 76 142 154 l143 143 177 -177 177 -177 -21
-23z m-184 106 c75 -77 136 -143 136 -147 0 -4 -78 -85 -173 -180 l-173 -173
-19 21 c-19 21 -18 21 135 175 l155 155 -105 105 -105 105 -62 -62 c-61 -61
-63 -61 -82 -44 -20 19 -20 19 57 102 42 45 82 83 88 83 7 1 73 -62 148 -140z
m-124 -294 l-145 -145 -177 177 -177 177 22 24 22 24 153 -158 152 -159 105
105 105 105 -62 62 c-61 62 -62 62 -43 83 l19 21 85 -86 86 -85 -145 -145z
m-62 188 l-22 -23 -23 22 -23 22 22 23 22 23 23 -22 23 -22 -22 -23z"/>
</g>
</svg>
