<?xml version="1.0" encoding="UTF-8" standalone="no"?>
<!-- Created with Inkscape (http://www.inkscape.org/) -->

<svg
   xmlns:dc="http://purl.org/dc/elements/1.1/"
   xmlns:cc="http://creativecommons.org/ns#"
   xmlns:rdf="http://www.w3.org/1999/02/22-rdf-syntax-ns#"
   xmlns:svg="http://www.w3.org/2000/svg"
   xmlns="http://www.w3.org/2000/svg"
   xmlns:sodipodi="http://sodipodi.sourceforge.net/DTD/sodipodi-0.dtd"
   xmlns:inkscape="http://www.inkscape.org/namespaces/inkscape"
   width="209.11433mm"
   height="94.713768mm"
   viewBox="0 0 209.11433 94.713768"
   version="1.1"
   id="svg38"
   inkscape:version="0.92.4 (5da689c313, 2019-01-14)"
   sodipodi:docname="emma-2.svg">
  <defs
     id="defs32" />
  <sodipodi:namedview
     id="base"
     pagecolor="#ffffff"
     bordercolor="#666666"
     borderopacity="1.0"
     inkscape:pageopacity="0.0"
     inkscape:pageshadow="2"
     inkscape:zoom="0.49497475"
     inkscape:cx="-170.5376"
     inkscape:cy="133.27304"
     inkscape:document-units="mm"
     inkscape:current-layer="layer1"
     showgrid="false"
     inkscape:window-width="1920"
     inkscape:window-height="986"
     inkscape:window-x="-11"
     inkscape:window-y="-11"
     inkscape:window-maximized="1" />
  <metadata
     id="metadata35">
    <rdf:RDF>
      <cc:Work
         rdf:about="">
        <dc:format>image/svg+xml</dc:format>
        <dc:type
           rdf:resource="http://purl.org/dc/dcmitype/StillImage" />
        <dc:title></dc:title>
      </cc:Work>
    </rdf:RDF>
  </metadata>
  <g
     inkscape:label="Calque 1"
     inkscape:groupmode="layer"
     id="layer1"
     transform="translate(0.99168881,-89.38139)">
    <path
       style="fill:rgb(255,255,255);stroke-width:0.18715394"
       d="m 67.713495,183.68108 c -0.24801,-0.24698 -0.81138,-1.03782 -1.25195,-1.7574 -1.00766,-1.64581 -1.03289,-2.25099 -0.17755,-4.25935 0.53059,-1.24581 1.05812,-1.97002 3.53998,-4.85982 1.60405,-1.86774 2.91647,-3.49003 2.91647,-3.6051 0,-0.11513 -0.2543,-0.61029 -0.56511,-1.10047 -1.15577,-1.82279 -2.37048,-5.28528 -2.37048,-6.75692 0,-0.39962 -0.0692,-0.72658 -0.15369,-0.72658 -0.0845,0 -0.64791,0.43121 -1.25195,0.95826 -0.60404,0.52703 -1.58209,1.24732 -2.17345,1.60064 -0.97785,0.58424 -1.19819,0.63714 -2.43411,0.58441 -0.84702,-0.0362 -1.54782,-0.18162 -1.8604,-0.3862 -0.2758,-0.18051 -0.61803,-0.40413 -0.76049,-0.49694 -0.73958,-0.48177 -1.05569,-0.63745 -1.29434,-0.63745 -0.14461,0 -0.5044,-0.27105 -0.79953,-0.60235 -0.29512,-0.3313 -0.68407,-0.65734 -0.86434,-0.72455 -0.18027,-0.0672 -0.28374,-0.20584 -0.22994,-0.3081 0.0538,-0.10232 -0.007,-0.13894 -0.13383,-0.0815 -0.12739,0.0575 -0.55174,-0.21745 -0.94299,-0.61084 -0.39125,-0.39339 -0.80134,-0.71525 -0.91129,-0.71525 -0.10996,0 -0.46233,0.23511 -0.78304,0.52244 -0.66198,0.59309 -1.845262,1.00708 -3.458546,1.21003 -0.996603,0.12531 -1.177597,0.0877 -1.844299,-0.38372 -0.406575,-0.28751 -0.930791,-0.82268 -1.164916,-1.18928 -0.234124,-0.36661 -0.796223,-1.06599 -1.249132,-1.5542 -0.787519,-0.84889 -1.299895,-1.08774 -2.848898,-1.32801 -0.541724,-0.0841 -1.433812,-0.54224 -1.433812,-0.73646 0,-0.0905 -0.156543,-0.22293 -0.347874,-0.29425 -0.191339,-0.0713 -0.303297,-0.2144 -0.24883,-0.31793 0.05447,-0.10346 -0.02405,-0.18824 -0.17445,-0.18824 -0.150429,0 -0.349092,-0.20538 -0.441489,-0.45639 -0.213614,-0.58033 -0.507355,-1.09996 -0.951934,-1.68401 -0.193278,-0.25389 -0.454896,-0.7205 -0.581367,-1.03688 -0.126449,-0.31638 -0.298587,-0.73374 -0.382479,-0.92745 -0.339754,-0.78453 0.0032,-1.69971 0.559475,-1.49379 0.130763,0.0485 0.445434,0.14124 0.699289,0.20629 l 0.461555,0.11825 -0.09608,-1.49251 c -0.05633,-0.87488 -0.02683,-1.54282 0.07137,-1.61409 0.09211,-0.0668 0.578485,0.51353 1.08086,1.28974 0.50237,0.77623 1.024784,1.41129 1.16092,1.41129 0.136155,0 0.219843,-0.0685 0.186016,-0.15207 -0.03382,-0.0838 -0.154972,-0.40315 -0.269203,-0.70995 -0.114239,-0.30679 -0.29459,-0.77729 -0.400762,-1.04555 -0.194318,-0.49095 -0.09811,-0.93212 0.20325,-0.93212 0.08938,0 0.162497,0.14238 0.162497,0.31623 0,0.17392 0.0689,0.26621 0.153109,0.20507 0.08422,-0.0611 0.242871,0.0164 0.352568,0.17114 0.132318,0.18727 0.139081,0.30601 0.02019,0.35274 -0.208372,0.0817 0.287073,2.63219 0.55018,2.83215 0.09034,0.0687 0.9925,0.2314 2.00483,0.36167 1.01233,0.13023 2.111492,0.28768 2.442583,0.34975 0.601205,0.11283 0.601562,0.11234 0.275432,-0.31095 -0.17961,-0.23311 -0.428628,-0.42387 -0.553395,-0.42387 -0.124772,0 -0.184936,-0.12826 -0.133734,-0.28498 0.06297,-0.19271 -0.07853,-0.32928 -0.436909,-0.42174 -0.291507,-0.0752 -0.644879,-0.32939 -0.78528,-0.56483 -0.332193,-0.55712 -0.185648,-0.71799 0.240934,-0.26452 0.183468,0.19503 0.465977,0.32379 0.627804,0.28612 0.239726,-0.0559 0.160112,-0.26766 -0.429707,-1.14355 -0.703779,-1.04512 -1.450129,-1.66374 -1.680639,-1.39297 -0.18316,0.21515 0.320903,1.75809 0.574336,1.75809 0.127252,0 0.231384,0.0913 0.231384,0.20284 0,0.11151 -0.07771,0.20284 -0.172678,0.20284 -0.09499,0 -0.172675,0.27669 -0.172675,0.61489 0,0.33817 -0.106077,0.66269 -0.235723,0.72114 -0.281037,0.12662 -1.716248,-1.47789 -1.570193,-1.75549 0.05738,-0.10904 0.214199,-0.0593 0.362593,0.11497 0.143822,0.16892 0.399798,0.39409 0.568857,0.50036 0.258207,0.16226 0.300204,0.11644 0.262509,-0.28685 -0.0564,-0.60348 -0.769313,-1.75867 -0.98755,-1.60022 -0.08972,0.0652 -0.029,-0.12202 0.134983,-0.41603 0.163967,-0.29395 0.473506,-0.58618 0.687874,-0.64936 0.589333,-0.17375 1.861333,0.41036 2.158095,0.991 0.5857,1.14599 2.946326,4.31358 3.620029,4.85754 0.811689,0.65535 0.982965,0.2785 0.240814,-0.52985 -0.310026,-0.33768 -0.418873,-0.61114 -0.339699,-0.85347 0.08878,-0.2718 0.164436,-0.30031 0.31805,-0.11989 0.410287,0.48194 0.564322,0.23933 0.50345,-0.79297 -0.05024,-0.85183 0.0074,-1.11501 0.332298,-1.52143 0.216164,-0.27029 0.520287,-0.49142 0.675814,-0.49142 0.255055,0 0.893685,0.80595 1.044765,1.31846 0.0329,0.11151 0.23918,0.4301 0.45844,0.70785 0.21927,0.27778 0.39876,0.64288 0.39888,0.81137 1.1e-4,0.16847 0.19438,0.57153 0.4317,0.89569 0.23733,0.32415 0.43266,0.68926 0.43407,0.81135 10e-4,0.12218 0.27141,0.58711 0.60001,1.03335 0.447,0.60705 0.63525,0.7446 0.74761,0.54622 0.14206,-0.25079 0.10644,-1.67113 -0.0556,-2.21964 -0.11438,-0.38706 0.0936,-0.86207 0.37743,-0.86207 0.16909,0 0.24312,0.18585 0.22225,0.5578 -0.0465,0.82724 -0.007,0.99534 0.16184,0.68293 0.11059,-0.2051 0.1883,-0.0961 0.28896,0.4057 0.0757,0.37741 0.11788,0.80927 0.0937,0.95963 -0.0243,0.15043 0.067,0.42423 0.20275,0.60853 0.13572,0.1843 0.29714,0.65458 0.3587,1.04504 0.14939,0.94739 0.82817,2.43407 1.11136,2.43407 0.17202,0 0.19809,-0.23248 0.10802,-0.9635 -0.0653,-0.52991 -0.17764,-1.05475 -0.24967,-1.16633 -0.072,-0.11151 -0.18496,-0.49948 -0.25095,-0.86204 -0.23557,-1.29404 0.35584,-0.69225 1.19601,1.21702 0.95946,2.18035 1.1899,2.49809 1.9458,2.68304 l 0.55783,0.13648 -0.0822,-1.72797 c -0.0847,-1.78049 0.0472,-2.21233 0.53141,-1.7403 0.14007,0.13647 0.37863,0.55514 0.53016,0.93023 0.25097,0.62126 0.34297,0.68202 1.03289,0.68202 0.71283,0 0.97273,-0.22543 0.58472,-0.50711 -0.28431,-0.2064 -0.19519,-0.87862 0.1295,-0.97705 0.16621,-0.0504 0.65188,-0.10708 1.07926,-0.12597 0.4274,-0.0189 0.83551,-0.10264 0.90692,-0.18612 0.0714,-0.0835 -0.21999,-0.73539 -0.64756,-1.44864 -0.42757,-0.71325 -0.7774,-1.36845 -0.7774,-1.45599 0,-0.43794 -3.518,-4.2077 -4.19168,-4.49165 -0.16849,-0.071 -0.3666,-0.32045 -0.44026,-0.55432 -0.0737,-0.23387 -0.18834,-0.41846 -0.25487,-0.41018 -0.0665,0.009 -0.19276,0.0148 -0.28052,0.0148 -0.1779,0 -2.24318,-2.38677 -4.02964,-4.65694 -0.99041,-1.25858 -1.13518,-1.53295 -0.95544,-1.81075 0.1165,-0.18007 0.22528,-0.35542 0.24172,-0.38965 0.0165,-0.0341 0.3779,0.12991 0.80324,0.36478 0.42535,0.23485 1.03612,0.45403 1.35727,0.48706 0.32114,0.033 0.72118,0.13023 0.88897,0.21603 0.16778,0.0857 0.4999,0.11216 0.73801,0.0587 0.23813,-0.0534 0.46635,-0.0339 0.50716,0.0439 0.0408,0.0775 0.42646,0.11775 0.85696,0.0891 0.43051,-0.0286 0.8218,0.0223 0.86952,0.11299 0.0477,0.0907 0.40689,0.0353 0.79813,-0.12301 0.51498,-0.20842 0.77343,-0.22735 0.93626,-0.0687 0.15599,0.15208 0.25922,0.15405 0.33683,0.007 0.0615,-0.11694 0.457,-0.2127 0.87878,-0.2127 0.6919,0 0.76688,-0.0471 0.76688,-0.48125 0,-0.9113 -2.62356,-3.14075 -4.70558,-3.99871 -0.35615,-0.14681 -0.65921,-0.33978 -0.67346,-0.42893 -0.0966,-0.60426 -0.03,-0.65345 0.80297,-0.5937 0.47488,0.0339 0.9525,0.14846 1.06139,0.25417 0.10889,0.10577 0.69169,0.23907 1.29511,0.29629 0.60342,0.0571 1.44682,0.17584 1.87421,0.2636 0.71024,0.14584 1.98372,0.12613 2.84924,-0.044 1.27043,-0.24977 1.81316,-0.40832 1.81316,-0.52966 0,-0.0767 -0.25255,-0.28937 -0.56122,-0.47276 -0.96328,-0.57223 -1.55736,-1.02458 -2.80032,-2.13225 -0.66165,-0.58964 -1.38043,-1.12438 -1.5973,-1.18832 -0.23034,-0.068 -0.39429,-0.27011 -0.39429,-0.48626 0,-0.37589 0.1416,-0.45999 1.19667,-0.7106 0.70597,-0.16771 2.55002,-1.08382 3.04412,-1.51231 0.5265,-0.45659 1.39549,-1.88371 1.19485,-1.96228 -1.12992,-0.44241 -4.75248,-3.52772 -4.9878,-4.24805 -0.1221,-0.3738 0.0572,-0.88904 0.30932,-0.88904 0.23826,0 2.74487,-0.93539 3.43037,-1.2801 0.26118,-0.13139 0.47487,-0.30366 0.47487,-0.38293 0,-0.0793 0.2914,-0.19939 0.64756,-0.26692 0.35616,-0.0675 0.84269,-0.24651 1.0812,-0.39773 0.45358,-0.2876 1.9069,-0.11135 2.31086,0.2803 0.10507,0.10182 0.46306,0.26851 0.79546,0.37029 0.55347,0.16943 0.62064,0.14107 0.79731,-0.33669 l 0.1929,-0.5217 0.16199,0.70342 c 0.11304,0.4909 0.28569,0.73775 0.57136,0.81696 0.56497,0.15667 0.65969,0.60941 0.1275,0.60941 h -0.4227 l 0.0534,4.91886 c 0.0294,2.70536 0.0951,5.3481 0.14592,5.87273 0.0509,0.52463 0.0255,1.00251 -0.0564,1.06197 -0.23237,0.16869 -0.44247,-4.30009 -0.37849,-8.05032 0.0375,-2.19912 -0.003,-3.39755 -0.11658,-3.39755 -0.096,0 -0.17096,0.11414 -0.16653,0.25356 0.005,0.13943 -0.004,0.73275 -0.0192,1.31845 -0.0452,1.76783 -0.28623,1.19496 -0.28623,-0.6802 v -1.74558 l -0.8634,-0.35246 c -2.05423,-0.8386 -1.99072,-0.8318 -3.19461,-0.34207 -0.61734,0.25112 -1.35556,0.59846 -1.64048,0.7719 -0.28493,0.17342 -1.15912,0.56347 -1.94267,0.86678 -0.78354,0.30328 -1.42463,0.59237 -1.42463,0.64239 0,0.26034 2.6448,2.71548 2.92523,2.71548 0.10068,0 0.18304,0.0774 0.18304,0.17203 0,0.0946 0.31127,0.33691 0.69172,0.53844 0.38045,0.20151 0.77286,0.48124 0.87203,0.62158 0.27446,0.38847 -0.1924,1.50084 -0.96378,2.29641 -0.62069,0.64014 -2.51671,1.83173 -3.39784,2.13542 -0.37521,0.12925 -0.37945,0.14994 -0.0783,0.38114 0.17514,0.1345 0.56368,0.50062 0.8634,0.81377 0.29973,0.31315 0.95291,0.84669 1.45153,1.18567 0.49861,0.33899 0.95001,0.69891 1.00311,0.79981 0.053,0.101 0.23688,0.18349 0.40842,0.18349 0.43788,0 1.22186,0.76972 1.22186,1.19964 0,0.23918 -0.21595,0.4344 -0.64754,0.58539 -1.18418,0.41424 -3.17027,0.68741 -4.07315,0.56021 -0.49031,-0.069 -1.35769,-0.17129 -1.92754,-0.22718 -0.95726,-0.094 -1.00982,-0.078 -0.69073,0.20921 2.20332,1.98305 2.67656,2.60739 2.67656,3.53118 0,1.01805 -2.31782,1.7655 -4.74874,1.53139 -0.56985,-0.0548 -1.4122,-0.0985 -1.8719,-0.0969 -0.45969,10e-4 -1.18879,-0.0901 -1.62022,-0.20365 -0.43142,-0.11365 -0.81426,-0.17142 -0.85074,-0.12859 -0.17247,0.20261 3.10086,3.95009 4.17017,4.77423 0.66483,0.5124 1.23468,1.00254 1.26634,1.08922 0.0317,0.0867 0.15774,0.15766 0.28018,0.15766 0.12245,0 0.65991,0.55095 1.19438,1.22434 0.53447,0.67337 0.97176,1.16309 0.97176,1.08825 0,-0.0749 0.17354,0.12728 0.3856,0.44909 0.21208,0.32184 0.56617,0.81337 0.78688,1.09226 0.2207,0.27891 0.53018,0.7581 0.68772,1.0649 0.15754,0.3068 0.38085,0.55782 0.49623,0.55782 0.11537,0 0.2346,0.20536 0.26496,0.45638 0.11569,0.9568 0.56772,0.46413 1.07015,-1.16632 0.27503,-0.8925 0.5995,-1.89655 0.72105,-2.23124 0.12157,-0.33468 0.37689,-1.20182 0.5674,-1.92697 0.19053,-0.72515 0.59423,-2.23122 0.89713,-3.34684 0.3029,-1.11561 0.93614,-3.80832 1.40719,-5.98376 1.05334,-4.86457 1.05582,-4.87677 1.53095,-7.55576 0.2127,-1.19929 0.45322,-2.18052 0.53448,-2.18052 0.19687,0 0.1913,0.0772 -0.12437,1.72422 -0.14967,0.78088 -0.31138,1.64798 -0.35936,1.92688 -0.19215,1.1169 -1.11615,5.64045 -1.34656,6.59228 -0.13503,0.5578 -0.29552,1.33367 -0.35666,1.72414 -0.12218,0.78016 -0.22436,1.1951 -0.84912,3.44826 -0.232,0.83671 -0.54976,2.1146 -0.70613,2.83975 -0.15638,0.72515 -0.47376,1.95691 -0.7053,2.73725 -0.4456,1.50171 -0.43946,2.80157 0.0173,3.65873 0.12081,0.22671 0.38067,1.08063 0.5775,1.89759 0.33503,1.39068 0.7041,2.02957 1.18116,2.04477 0.11145,0.003 0.42226,0.21955 0.69073,0.48002 0.79434,0.77066 3.12007,1.95856 4.88576,2.49547 1.82945,0.55631 2.59123,1.08887 1.55372,1.08621 -1.23769,-0.003 -2.88063,-0.44347 -3.96552,-1.06273 -0.61733,-0.35241 -1.21872,-0.6325 -1.33642,-0.62248 -0.11769,0.01 -0.17139,-0.0627 -0.11932,-0.16177 0.0521,-0.0989 -0.0598,-0.17993 -0.24854,-0.17993 -0.18877,0 -0.44591,-0.11889 -0.57141,-0.26406 -0.1255,-0.14517 -0.59101,-0.46928 -1.03445,-0.72009 -0.44345,-0.2508 -0.89977,-0.58836 -1.01407,-0.75013 -0.11428,-0.16176 -0.27511,-0.29409 -0.35736,-0.29409 -0.15795,0 -0.54452,-0.35058 -1.39787,-1.26777 -0.28544,-0.30678 -0.54745,-0.5578 -0.58224,-0.5578 -0.0348,0 -0.37256,0.57049 -0.75059,1.26775 -0.74907,1.38165 -1.36161,2.18052 -1.67191,2.18052 -0.10908,0 -0.29436,0.13598 -0.41173,0.30203 -0.11736,0.1661 -0.27693,0.2559 -0.35458,0.19953 -0.0777,-0.0563 -0.18999,-0.01 -0.24965,0.10362 -0.0596,0.11332 -0.36031,0.20614 -0.66812,0.20614 -0.6211,0 -0.97409,0.30438 -0.97409,0.83996 0,0.63825 -0.36602,0.63598 -0.92972,-0.005 -0.30498,-0.34723 -0.69192,-0.63133 -0.85984,-0.63133 -0.16792,0 -0.45564,-0.0944 -0.63934,-0.20998 -0.2894,-0.18191 -0.33401,-0.14123 -0.33401,0.30427 0,0.28283 -0.0583,0.51133 -0.1295,0.50777 -0.21136,-0.01 -0.7339,-0.53037 -0.7339,-0.73011 0,-0.1765 -0.36724,-0.64364 -1.12767,-1.43435 -0.19283,-0.20051 -0.58138,-0.50017 -0.86342,-0.66589 -0.95364,-0.5604 -2.75728,-1.87807 -2.81522,-2.0567 -0.0317,-0.0975 -0.16765,-0.17746 -0.30219,-0.17746 -0.13455,0 -0.24464,-0.0913 -0.24464,-0.20284 0,-0.11151 -0.18093,-0.20285 -0.40209,-0.20285 -0.22116,0 -0.7609,-0.27915 -1.199444,-0.62038 -0.770927,-0.5998 -0.811982,-0.60908 -1.239244,-0.28025 -0.512961,0.3948 -0.73696,0.25342 -1.303013,-0.82244 -0.191952,-0.36479 -0.561988,-0.76157 -0.822325,-0.88173 -0.564065,-0.26033 -1.787652,-0.54227 -2.01908,-0.46525 -0.233653,0.0778 -3.064513,-0.37907 -3.269065,-0.52758 -0.0936,-0.068 -0.58611,-0.13056 -1.094486,-0.13927 -0.58683,-0.01 -0.978011,-0.11775 -1.071353,-0.2952 -0.260054,-0.49441 -0.576091,-0.0239 -0.475075,0.70728 0.0517,0.37424 0.02365,0.73148 -0.06225,0.79387 -0.145333,0.10543 -0.251167,-0.23595 -0.376992,-1.21631 -0.03853,-0.30013 -0.242832,-0.43873 -0.816068,-0.5537 -0.885126,-0.17749 -0.990237,-0.12563 -0.622009,0.30692 0.146995,0.17265 0.267243,0.44619 0.267243,0.60782 0,0.1616 0.128516,0.41919 0.285573,0.5723 0.157072,0.15306 0.487314,0.6524 0.733895,1.10952 0.246582,0.45713 0.732137,1.12052 1.079014,1.4742 0.681672,0.69504 2.781818,1.69477 3.181659,1.51452 0.135123,-0.061 0.245671,-0.0164 0.245671,0.10018 0,0.11595 0.174837,0.27569 0.388528,0.35492 0.213698,0.0791 1.029618,0.91527 1.81316,1.85791 0.783545,0.94262 1.42463,1.64863 1.42463,1.56892 0,-0.0796 0.117118,-0.0307 0.260276,0.10872 0.186815,0.18211 0.604274,0.21392 1.478788,0.11266 1.477278,-0.171 2.355287,-0.51719 3.387847,-1.33573 l 0.78145,-0.61952 0.88798,0.78603 c 1.21288,1.07359 2.06483,1.68995 3.99595,2.89099 1.49293,0.9285 1.77994,1.03444 3.0685,1.1327 l 1.42153,0.10838 1.6261,-1.28485 c 0.89436,-0.70667 1.84626,-1.45299 2.11535,-1.65851 0.34677,-0.26481 0.48925,-0.54057 0.48925,-0.94689 0,-0.31528 0.0472,-0.71762 0.10482,-0.89409 0.18564,-0.56827 0.41322,-0.34203 0.41322,0.41079 0,0.61483 0.0482,0.70931 0.30219,0.59181 0.52066,-0.24091 2.05406,-0.36792 2.70644,-0.22416 0.34379,0.0757 0.89996,0.42124 1.23594,0.76777 1.85039,1.9084 1.78128,4.67872 -0.1974,7.9139 -0.35444,0.57951 -0.58921,1.1834 -0.5591,1.43814 0.0349,0.29473 -0.0405,0.43998 -0.2292,0.44167 -0.30025,0.003 -2.59869,2.41312 -4.83764,5.07346 -0.96737,1.14941 -1.55091,2.05772 -2.00071,3.11421 l -0.63501,1.49148 0.47407,1.044 c 0.26074,0.5742 0.70805,1.36347 0.99403,1.75392 0.45654,0.62335 0.54027,0.66808 0.68639,0.36678 0.15188,-0.31319 0.22058,-0.31657 0.78651,-0.0388 0.34104,0.1674 0.64922,0.27014 0.68481,0.22831 0.0356,-0.0419 -0.0115,-0.38884 -0.105,-0.77117 -0.24772,-1.0146 -0.21898,-1.67623 0.0672,-1.54722 0.13032,0.0588 0.57938,0.16712 0.99792,0.24084 l 0.76097,0.13401 -0.005,-1.15349 -0.005,-1.1535 1.20877,-0.81025 c 1.33165,-0.89262 2.60903,-1.67265 4.05802,-2.47801 2.0651,-1.14782 2.67394,-1.64052 2.7312,-2.21016 0.0631,-0.62837 0.1508,-0.66347 0.56289,-0.22537 0.27275,0.28993 0.35837,0.28336 0.96335,-0.074 0.36519,-0.2157 0.95547,-0.50294 1.31172,-0.63829 1.01253,-0.38467 2.22844,-1.46998 4.16662,-3.71908 1.08934,-1.26408 1.95733,-2.46937 2.22358,-3.08767 0.4636,-1.07659 2.00354,-2.93396 3.15028,-3.79963 0.37991,-0.28678 1.10752,-0.98682 1.61694,-1.55563 0.50941,-0.5688 1.02345,-1.03416 1.14231,-1.03416 0.11884,0 0.41368,-0.18257 0.65516,-0.40568 0.24148,-0.22312 0.56554,-0.40567 0.7201,-0.40567 0.15461,0 0.46264,-0.13978 0.68461,-0.31064 0.58903,-0.45335 1.1744,-0.5204 5.282765,-0.60517 2.04195,-0.0422 4.06233,-0.13714 4.48972,-0.21121 l 0.77706,-0.1345 -1.38144,-0.37999 c -0.75981,-0.209 -1.8477,-0.52312 -2.41755,-0.69809 -0.56986,-0.17495 -1.34692,-0.38845 -1.72682,-0.47441 -0.91576,-0.20728 -1.568585,-0.62714 -2.505795,-1.61152 -0.57528,-0.60426 -0.72555,-0.87424 -0.58273,-1.04709 0.14421,-0.17457 0.27076,-0.14074 0.50528,0.13517 0.49457,0.58176 2.018675,1.68149 2.174035,1.56869 0.0775,-0.0561 0.70636,0.12137 1.3975,0.39482 3.49594,1.38298 3.78235,1.43895 7.38678,1.44314 3.12142,0.003 3.41772,-0.0279 4.05801,-0.4327 0.3799,-0.24017 0.885,-0.68158 1.12243,-0.98092 0.36973,-0.46613 0.42739,-0.71689 0.40157,-1.74687 -0.0324,-1.29183 -0.41854,-2.89179 -0.95641,-3.96263 -0.27823,-0.5539 -0.62691,-0.8481 -1.17198,-0.98888 -0.0475,-0.0114 -0.39716,-0.19104 -0.77706,-0.39728 -0.84317,-0.45779 -0.6215,-0.38495 -2.11535,-0.69532 -0.68857,-0.14303 -1.25193,-0.34318 -1.25193,-0.44464 0,-0.10151 -0.14584,-0.18452 -0.32427,-0.18452 -0.45753,0 -1.47464,-0.52599 -1.73806,-0.89883 -0.12197,-0.17255 -0.28714,-0.2662 -0.36717,-0.2081 -0.15644,0.11348 -1.38314,-0.43208 -1.53612,-0.68318 -0.20759,-0.34079 -3.11506,-2.49926 -4.31488,-3.20335 -0.70779,-0.41534 -1.612675,-1.01345 -2.010875,-1.32913 -0.3982,-0.31566 -0.79607,-0.57392 -0.88421,-0.57392 -0.25542,0 -2.25145,-1.17574 -2.36619,-1.39378 -0.0573,-0.10871 -0.35569,-0.26094 -0.66327,-0.33821 -0.30758,-0.0772 -0.63694,-0.20798 -0.73192,-0.29057 -0.095,-0.0826 -0.55586,-0.26008 -1.02419,-0.39443 -0.76387,-0.21915 -0.89719,-0.20425 -1.29512,0.14469 -0.24397,0.21395 -0.4436,0.51608 -0.4436,0.67138 0,0.15536 -0.098,0.35597 -0.21785,0.44591 -0.39103,0.2935 -1.10041,2.16953 -0.98371,2.60146 0.0813,0.30105 0.019,0.43547 -0.2388,0.51466 -0.41081,0.12614 -0.62904,0.65869 -0.38665,0.94342 0.11175,0.13122 0.0536,0.37393 -0.16943,0.70698 -0.51834,0.77405 -0.23163,0.80679 0.43352,0.0494 0.94316,-1.07382 1.13301,-0.80314 1.40239,1.99931 0.10645,1.10735 0.0806,1.33745 -0.17485,1.55685 -0.24335,0.20903 -0.45033,0.20424 -1.09989,-0.0255 -1.14229,-0.40382 -1.51976,-0.0821 -1.68088,1.43272 -0.0661,0.62162 -0.0718,1.18709 -0.0126,1.25659 0.0592,0.0694 -0.0285,0.30387 -0.19497,0.52079 -0.23492,0.30619 -0.29515,0.70656 -0.26939,1.79043 0.0284,1.194 -0.0149,1.42633 -0.29935,1.60513 -0.18289,0.11495 -0.49803,0.66093 -0.7003,1.21323 -0.20227,0.5523 -0.71295,1.37794 -1.13484,1.83476 -0.72029,0.77987 -2.29639,1.80927 -2.77695,1.81367 -0.25869,0.002 -0.28872,0.53367 -0.0403,0.71396 0.0965,0.0701 0.13059,0.21274 0.0757,0.31705 -0.0549,0.10427 -0.36328,-0.0465 -0.68534,-0.33502 -0.39685,-0.35554 -0.69952,-0.48213 -0.93913,-0.3928 -0.35519,0.13237 -0.49935,-0.17144 -0.18842,-0.39716 0.0908,-0.0661 0.12153,-0.25334 0.0682,-0.41647 -0.0533,-0.16308 -0.16646,-0.24611 -0.25149,-0.18438 -0.085,0.0617 -0.15458,-0.0645 -0.15458,-0.28058 0,-0.21604 -0.12157,-0.51131 -0.27012,-0.65616 -0.16305,-0.15897 -0.23286,-0.4377 -0.17613,-0.70324 0.0647,-0.3028 -0.0399,-0.58756 -0.33552,-0.91385 -0.42097,-0.46455 -0.43453,-0.46618 -0.68178,-0.0823 -0.23637,0.36702 -0.25263,0.34547 -0.25777,-0.34158 -0.003,-0.40331 -0.14943,-0.95098 -0.32535,-1.21702 -0.57067,-0.86306 -1.21546,-2.84082 -1.24885,-3.8306 -0.009,-0.2789 -0.12377,-2.19574 -0.2541,-4.25962 -0.13035,-2.06389 -0.25074,-4.50673 -0.26755,-5.42853 -0.0411,-2.25574 -0.12425,-2.68504 -0.51999,-2.68504 -0.4256,0 -0.41528,-0.33618 0.0202,-0.65558 0.29425,-0.21587 0.34536,-0.47303 0.34536,-1.73783 0,-0.954 0.0627,-1.43893 0.17553,-1.35705 0.0965,0.0701 0.15483,0.64596 0.12951,1.27971 l -0.046,1.1523 0.64756,0.0629 0.64755,0.0629 v -0.91305 c 0,-0.90159 0.22571,-1.39303 0.3978,-0.8662 0.0487,0.14928 0.1424,0.81045 0.2081,1.46941 0.19006,1.90614 0.68091,3.9753 2.61788,11.03581 0.22954,0.83673 0.89556,2.68509 1.48004,4.10751 l 1.06268,2.58619 h 0.91575 c 0.85152,0 1.20091,-0.23671 0.69989,-0.47418 -0.16896,-0.0801 -0.16776,-0.10577 0.006,-0.11826 0.24939,-0.0181 0.58007,0.8213 0.40809,1.03583 -0.0613,0.0765 -0.44593,0.0335 -0.85475,-0.0956 -0.899,-0.28376 -1.16544,-1.9e-4 -0.79129,0.84207 0.13054,0.29387 0.23782,0.65441 0.2384,0.8012 5.3e-4,0.14682 0.0854,0.45201 0.18851,0.67829 0.18593,0.40812 0.19099,0.40759 0.62771,-0.064 0.34063,-0.36787 1.25703,-2.3223 1.25703,-2.68093 0,-0.0351 -0.19418,-0.32929 -0.4315,-0.65344 -0.23732,-0.32414 -0.43159,-0.47527 -0.4317,-0.3358 -2.6e-4,0.41013 -0.36977,0.29011 -0.46822,-0.15207 -0.0497,-0.22314 -0.1719,-0.40569 -0.27164,-0.40569 -0.0997,0 -0.13019,-0.0601 -0.0677,-0.13353 0.0625,-0.0734 0.0243,-0.25982 -0.0848,-0.41426 -0.14788,-0.20933 -0.14855,-0.33936 -0.003,-0.51083 0.14598,-0.17146 0.28504,-0.13516 0.54632,0.14254 0.19279,0.20494 0.31548,0.41373 0.27268,0.46402 -0.13575,0.15946 0.92453,1.09502 1.09819,0.96896 0.18047,-0.13105 0.0729,-1.69586 -0.13972,-2.03338 -0.072,-0.11429 -0.14713,-0.52364 -0.16698,-0.9097 -0.0198,-0.38609 -0.12856,-0.76912 -0.24158,-0.85117 -0.14467,-0.1051 -0.11557,-0.18971 0.0983,-0.28611 0.18704,-0.0842 0.44667,0.009 0.67554,0.24263 0.32806,0.33496 0.3163,0.26633 -0.10004,-0.58392 -0.25948,-0.52991 -0.42527,-0.96347 -0.36841,-0.96347 0.0568,0 -0.0339,-0.27295 -0.20164,-0.60652 -0.40204,-0.79947 -0.16495,-1.10884 0.6074,-0.79257 0.73198,0.29973 0.80745,0.16881 0.37877,-0.65714 -0.48047,-0.92573 -0.44703,-1.30025 0.16344,-1.8304 l 0.51874,-0.45051 -0.42502,-0.5211 c -0.46076,-0.56492 -0.4002,-0.88898 0.20777,-1.11184 0.36717,-0.13467 0.55085,-0.52079 0.2477,-0.52079 -0.0775,0 -0.86253,-0.81917 -1.74461,-1.82037 -1.57599,-1.78883 -1.59648,-1.82428 -1.18278,-2.04568 0.34137,-0.18271 0.66311,-0.12893 1.70144,0.28429 0.70424,0.28029 1.85093,0.60968 2.54818,0.73196 l 1.26775,0.22234 0.59175,-0.61031 c 0.94922,-0.97897 1.24331,-0.97384 3.60734,0.0631 0.73647,0.32303 4.21461,2.39055 5.775435,3.43308 0.51719,0.34546 1.31206,0.86219 1.76639,1.14834 0.45433,0.28613 1.48423,1.0504 2.28864,1.69838 0.80444,0.64799 1.61864,1.19196 1.80935,1.20883 0.1907,0.0167 0.31198,0.0714 0.26949,0.12136 -0.10299,0.12087 1.47691,0.86709 2.76863,1.30772 3.7786,1.28896 4.68738,1.72358 4.86975,2.32892 0.0573,0.19019 0.19539,0.48271 0.30708,0.65006 0.2809,0.42122 0.74574,2.51313 0.85527,3.84913 0.14196,1.73172 -0.31029,2.63926 -1.67697,3.36477 -0.93665,0.49722 -1.33948,0.58156 -3.14635,0.65873 -1.13969,0.0487 -2.11809,0.17313 -2.17422,0.27659 -0.34829,0.64211 -6.55651,1.29959 -9.133875,0.96734 -1.85454,-0.23906 -4.79687,0.94406 -6.30543,2.53548 -0.3799,0.40077 -1.07676,1.06926 -1.54856,1.48556 -1.08146,0.95418 -3.20018,3.46396 -3.20018,3.79085 0,0.89346 -4.21772,5.58465 -5.90943,6.5728 -0.59942,0.35012 -1.244,0.638 -1.43238,0.63971 -0.18838,0.001 -0.44727,0.0812 -0.57531,0.1764 -0.31686,0.23586 0.20426,0.79046 1.77589,1.88998 1.22256,0.85532 2.53019,1.97874 3.79644,3.26164 0.46818,0.47434 0.64327,0.78973 0.56738,1.02203 -0.0881,0.26958 -0.19748,0.29682 -0.55339,0.13796 -0.44361,-0.19811 -1.38242,-0.16854 -1.56795,0.0494 -0.0541,0.0636 0.0219,0.3887 0.16882,0.72253 0.42407,0.96328 0.0745,1.12547 -1.34647,0.62472 -0.64452,-0.22714 -1.21048,-0.3676 -1.25768,-0.31214 -0.0472,0.0554 0.11191,0.44262 0.35359,0.8604 0.24167,0.41778 0.39941,0.83562 0.35052,0.92857 -0.24391,0.46358 -1.62657,-0.08 -2.7577,-1.08411 -0.29185,-0.2591 -1.33158,-1.5505 -2.31049,-2.8698 -1.61329,-2.17428 -1.82201,-2.3863 -2.23052,-2.26587 -0.24787,0.0731 -0.49032,0.1941 -0.53876,0.26893 -0.0484,0.0749 -0.43774,0.3529 -0.86513,0.61795 -0.42739,0.26507 -1.2288,0.76709 -1.78093,1.11562 l -1.00386,0.63371 0.10218,0.81135 c 0.2637,2.09379 0.2863,2.0317 -0.72786,2.00047 -0.99146,-0.0306 -1.06126,0.0805 -0.64316,1.02214 0.34602,0.77938 0.18422,1.3995 -0.32051,1.22838 -0.20604,-0.07 -0.58912,-0.30531 -0.85129,-0.52323 l -0.47667,-0.3962 -0.16662,0.51474 c -0.19836,0.61282 -0.15173,0.60947 -0.7124,0.0511 z m 14.54651,-1.92194 c -0.0895,-0.19647 -0.32537,-0.53009 -0.52412,-0.74137 -0.38193,-0.40601 -0.48411,-0.92979 -0.1814,-0.92979 0.099,0 0.76762,0.14256 1.48586,0.31687 0.71824,0.17427 1.34092,0.27569 1.38373,0.2254 0.0428,-0.0503 -0.12072,-0.34311 -0.36342,-0.65072 -0.2427,-0.30761 -0.44127,-0.63725 -0.44127,-0.73252 0,-0.14994 0.73459,-0.25069 1.77472,-0.24337 0.16882,0.001 0.27953,-0.0966 0.24602,-0.21741 -0.0894,-0.32209 -1.60983,-1.63768 -2.77167,-2.39818 -0.55547,-0.3636 -1.16265,-0.76369 -1.3493,-0.88908 -0.18663,-0.12547 -0.56066,-0.47707 -0.83117,-0.7815 -0.42955,-0.4834 -0.57998,-0.53601 -1.18782,-0.41539 -0.38279,0.0761 -0.78768,0.26791 -0.89976,0.42654 -0.11205,0.15864 -0.3108,0.2884 -0.44163,0.2884 -0.13083,0 -0.23849,0.0685 -0.23923,0.15207 -0.001,0.18216 -0.83782,0.65924 -1.15551,0.65924 -0.12354,0 -0.22459,0.0914 -0.22459,0.20283 0,0.11151 0.071,0.20284 0.15778,0.20284 0.0868,0 0.80277,0.88995 1.59109,1.97768 1.92644,2.65815 2.04398,2.79418 2.92536,3.38598 0.9219,0.61899 1.27996,0.67423 1.04632,0.16144 z m -8.06871,-14.59967 c 1.11878,-2.04742 1.4394,-3.21652 1.17085,-4.26939 -0.34355,-1.34691 -1.13268,-2.42731 -1.9695,-2.69638 -0.92782,-0.29835 -1.97291,-0.29903 -2.61592,-0.001 -0.4842,0.22392 -0.49359,0.25681 -0.3968,1.39129 0.0966,1.13284 0.56002,2.97315 0.98983,3.93115 0.43475,0.96902 1.7321,3.2142 1.85156,3.20429 0.0679,-0.005 0.50442,-0.70731 0.96998,-1.5593 z m -9.13518,-8.9781 c -0.0587,-0.11151 -0.22329,-0.20284 -0.36575,-0.20284 -0.14246,0 -0.21099,0.0913 -0.15229,0.20284 0.0587,0.11151 0.22329,0.20283 0.36575,0.20283 0.14247,0 0.21099,-0.0913 0.15229,-0.20283 z m 2.2458,-0.35497 c 0.24564,-0.30679 0.60968,-0.86374 0.80899,-1.23767 0.41113,-0.77133 0.26035,-1.03557 -0.59408,-1.04116 -0.55152,-0.003 -0.63366,0.31603 -0.12951,0.50399 0.21737,0.081 0.34536,0.30689 0.34536,0.60943 0,0.42678 -0.063,0.46991 -0.56121,0.38466 -0.75661,-0.12942 -1.06901,0.14353 -0.92667,0.8097 0.14542,0.68056 0.49675,0.67093 1.05712,-0.0289 z m 16.31398,-0.37699 c 0.38182,-0.17946 0.69282,-0.43047 0.69111,-0.5578 -0.003,-0.23334 -1.25412,-1.54999 -1.47267,-1.54999 -0.0647,0 -0.0662,0.40267 -0.003,0.89479 0.0628,0.49213 0.0433,0.9463 -0.0435,1.00927 -0.17172,0.12465 -0.44907,-2.08977 -0.28576,-2.2816 0.055,-0.0645 0.42603,0.0856 0.82462,0.33349 0.39858,0.24797 0.82364,0.4506 0.9446,0.4503 0.29985,-5.3e-4 0.16821,-1.31969 -0.17763,-1.77979 -0.56804,-0.7557 -2.3597,-5.33013 -2.87817,-7.34854 -0.3009,-1.1714 -0.68992,-2.58619 -0.8645,-3.14401 -0.7078,-2.26161 -1.1446,-4.0339 -1.31199,-5.32346 -0.0615,-0.47355 -0.18067,-0.91103 -0.26486,-0.97214 -0.15526,-0.11266 -0.0794,7.68489 0.0777,7.98341 0.0458,0.087 0.12976,1.65972 0.18661,3.49486 0.13021,4.20402 0.24156,4.70337 1.31704,5.90621 0.87207,0.97534 1.05015,1.31801 0.57321,1.10304 -0.34666,-0.15635 -0.29546,-0.0253 0.44613,1.14151 0.68252,1.07384 1.07852,1.18699 2.24137,0.64045 z m -21.92707,-0.16885 c 0,-0.30448 -0.31002,-0.62819 -0.44726,-0.46698 -0.12044,0.1414 0.11801,0.75927 0.29305,0.75927 0.0848,0 0.1542,-0.13154 0.1542,-0.29229 z m -2.93823,-0.87404 c -0.005,-0.30454 -0.27148,-0.60968 -0.99853,-1.14466 -0.40818,-0.30035 -0.78559,-0.67909 -0.83871,-0.84168 -0.0531,-0.16258 -0.27793,-0.29559 -0.4996,-0.29559 -0.43657,0 -0.78576,-0.43284 -0.454,-0.56274 0.36165,-0.14157 0.24351,-1.63338 -0.1604,-2.02544 -0.2,-0.19416 -0.51572,-0.76191 -0.7016,-1.26168 -0.18588,-0.4998 -0.40454,-0.95706 -0.48592,-1.01613 -0.0814,-0.0591 -0.17361,-0.23856 -0.20497,-0.39888 -0.0314,-0.16029 -0.24542,-0.50416 -0.47569,-0.76411 -0.565808,-0.63868 -0.699177,-0.33832 -0.695616,1.56651 0.0032,1.50492 0.220475,2.23123 0.668646,2.23123 0.11386,0 0.15897,0.0914 0.10029,0.20285 -0.0587,0.11151 -0.0253,0.20283 0.0742,0.20283 0.0995,0 0.33873,0.15881 0.53163,0.35276 0.19289,0.194 0.4785,0.35375 0.63467,0.35497 0.15615,10e-4 0.31214,0.10084 0.34662,0.22142 0.0396,0.13877 -0.13826,0.18458 -0.48454,0.12499 -0.67823,-0.11694 -0.5754,0.11118 0.40086,0.88932 0.40779,0.32504 0.7803,0.64696 0.82779,0.71538 0.0475,0.0685 0.35831,0.28695 0.69073,0.48564 0.33241,0.19868 0.7897,0.53088 1.01621,0.73823 0.43035,0.39397 0.71246,0.48358 0.70796,0.22486 z m 12.6835,-1.24893 c -0.13841,-0.54748 -0.36686,-1.25488 -0.50767,-1.57201 -0.14082,-0.31712 -0.25651,-0.73635 -0.25709,-0.93158 -5.3e-4,-0.19522 -0.0874,-0.35497 -0.19297,-0.35497 -0.12681,0 -0.15234,0.24773 -0.0753,0.73031 0.0872,0.54607 0.0423,0.82683 -0.1782,1.11297 -0.28167,0.3656 -0.26096,0.41866 0.46379,1.18836 0.41725,0.44312 0.81272,0.80941 0.87884,0.81399 0.0661,0.005 0.007,-0.4396 -0.13145,-0.98707 z m -12.20096,-0.0694 c -0.0995,-0.36259 -0.24812,-0.81773 -0.33036,-1.01145 -0.0822,-0.19373 -0.14955,-0.57626 -0.14955,-0.85009 0,-0.27384 -0.0897,-0.56302 -0.19935,-0.64262 -0.119,-0.0863 -0.15267,-0.056 -0.0835,0.0754 0.0637,0.12104 0.0369,0.2775 -0.0597,0.34758 -0.27014,0.1961 -0.20787,1.23927 0.0914,1.53099 0.14678,0.14304 0.23056,0.37134 0.18617,0.50722 -0.0937,0.28691 0.21158,0.70216 0.51623,0.70216 0.15832,0 0.16531,-0.16111 0.0286,-0.65922 z m 19.46439,-4.76673 c -0.0593,-1.08773 -0.1058,-2.1146 -0.10319,-2.28194 0.003,-0.16735 0.012,-0.7381 0.0209,-1.26834 0.009,-0.53023 -0.0235,-1.03931 -0.0718,-1.13128 -0.0484,-0.0919 -0.13621,-2.1217 -0.19517,-4.51049 -0.059,-2.3888 -0.13674,-4.378 -0.17288,-4.42045 -0.0361,-0.0424 -0.27204,-0.0164 -0.52425,0.058 l -0.45856,0.13515 0.11637,2.67822 c 0.064,1.47301 0.14481,3.18023 0.17955,3.79381 0.0347,0.61359 0.11327,2.25658 0.17448,3.65111 0.13011,2.9639 0.59732,5.27382 1.06674,5.27382 0.0417,0 0.0272,-0.88995 -0.0322,-1.97768 z m 8.89354,-0.44441 c 0,-0.37128 -0.28822,-0.75522 -0.43634,-0.58124 -0.11862,0.13927 0.12465,0.97494 0.2838,0.97494 0.0839,0 0.15254,-0.17717 0.15254,-0.3937 z m -44.03381,-0.0148 c 0,-0.25359 -0.379643,-1.06812 -0.576832,-1.23759 -0.07983,-0.0687 -0.235236,-0.33522 -0.345363,-0.59251 -0.110128,-0.25727 -0.308745,-0.50984 -0.441367,-0.5613 -0.196049,-0.0761 -0.218186,0.10955 -0.118396,0.99313 0.0675,0.59764 0.204941,1.203 0.30544,1.34525 0.216482,0.30639 1.176526,0.34966 1.176526,0.0531 z m 44.53972,-2.99347 c 0.008,-0.30302 -0.1359,-0.53996 -0.4203,-0.69217 -0.64581,-0.34565 -0.72372,-0.0508 -0.25366,0.96003 0.34006,0.73121 0.44472,0.83741 0.54166,0.54961 0.0661,-0.19621 0.12562,-0.56406 0.13229,-0.81747 z m 2.71708,-0.90843 c -0.0525,-0.25102 -0.14835,-0.93322 -0.21306,-1.516 l -0.11764,-1.05963 -0.42031,0.38834 c -0.23117,0.21362 -0.57102,0.61343 -0.75524,0.88853 l -0.33493,0.50015 0.80649,0.6275 c 0.96009,0.74701 1.16206,0.7804 1.03469,0.17111 z m -2.10502,-2.1298 c 0.10927,-0.60928 0.0845,-0.65923 -0.32718,-0.65923 -0.50156,0 -0.6021,0.52216 -0.2339,1.21473 0.25338,0.47657 0.4024,0.32903 0.56108,-0.5555 z m 0.5046,-2.19883 c 0.19919,-0.60977 -0.22214,-0.89204 -0.74805,-0.50114 -0.20547,0.15272 -0.20924,0.23903 -0.022,0.50399 0.28982,0.41019 0.63556,0.40891 0.77008,-0.003 z m 1.01735,-2.37547 c 0.45619,-0.9413 0.34583,-1.06216 -1.15696,-1.26703 -0.57389,-0.0782 -1.33659,-0.26376 -1.6949,-0.41225 -0.3583,-0.14846 -0.65146,-0.18704 -0.65146,-0.0858 0,0.38018 2.44853,2.66089 2.78954,2.59836 0.18706,-0.0343 0.50825,-0.40933 0.71378,-0.83341 z m 50.459685,33.73241 c -0.0587,-0.11151 0.0143,-0.20284 0.16256,-0.20284 0.14808,0 0.26921,0.0914 0.26921,0.20284 0,0.11151 -0.073,0.20285 -0.16255,0.20285 -0.0893,0 -0.21054,-0.0914 -0.26922,-0.20285 z m -75.451705,-0.91922 c -0.18436,-0.16373 -0.26107,-0.29781 -0.17046,-0.29781 0.0906,0 0.24145,-0.20539 0.3352,-0.45639 0.24295,-0.65046 1.04932,-0.73405 1.21367,-0.1258 0.0916,0.33907 0.0242,0.54961 -0.26333,0.82316 -0.46283,0.44023 -0.67158,0.45087 -1.11507,0.0568 z m 45.086495,-18.92427 c -0.58436,-0.75847 -0.23741,-1.66252 0.90411,-2.35592 0.56043,-0.34043 1.14968,-0.20496 1.54556,0.35535 0.17541,0.24829 0.17031,0.43987 -0.0263,0.99267 -0.134,0.37674 -0.37656,0.8411 -0.539,1.03191 -0.4014,0.47153 -1.51351,0.45734 -1.88438,-0.0239 z m 89.30536,-3.33088 c -0.11858,-0.25102 -0.20294,-0.51076 -0.18765,-0.57721 0.0163,-0.0666 -0.0875,-0.56849 -0.22843,-1.11563 -0.34998,-1.3587 -0.86401,-4.28099 -0.92287,-5.24675 -0.006,-0.1074 -0.2256,0.0964 -0.48677,0.45274 -0.50323,0.68657 -1.61836,1.11916 -2.33571,0.9061 -0.64014,-0.19012 -1.50646,-1.50847 -1.50646,-2.29247 0,-0.4471 0.29351,-0.13269 0.49885,0.53437 0.25709,0.83511 1.11039,1.53906 1.69584,1.39901 0.21756,-0.052 0.57649,-0.13812 0.79765,-0.19119 0.62525,-0.15009 0.81335,-0.90338 0.69792,-2.79484 -0.15292,-2.50532 -0.11365,-4.32846 0.10334,-4.80502 0.10672,-0.23404 0.15623,-0.49693 0.11042,-0.58424 -0.0459,-0.0872 0.0671,-0.83228 0.25104,-1.65552 0.18397,-0.82323 0.33453,-1.75399 0.33453,-2.06832 0,-0.31433 0.0778,-0.57153 0.17276,-0.57153 0.095,0 0.17276,-0.20537 0.17276,-0.45637 1e-4,-0.25102 0.11766,-1.11836 0.26142,-1.92745 0.28871,-1.62558 0.18255,-2.58653 -0.5318,-4.81695 -0.0714,-0.22314 -0.11704,-0.4762 -0.10118,-0.56239 0.0163,-0.0862 -0.16235,-0.86203 -0.39578,-1.72413 -0.68851,-2.54227 -0.70932,-3.56439 -0.10318,-5.06814 0.56426,-1.39977 2.07007,-3.82926 3.75863,-6.06426 0.6031,-0.79828 1.27647,-1.86893 1.49642,-2.37923 0.21996,-0.51031 0.44163,-0.8788 0.49263,-0.81889 0.051,0.0599 0.19785,-0.17014 0.32646,-0.51123 0.12843,-0.3411 0.297,-0.62016 0.3744,-0.62016 0.0773,0 0.0924,-0.092 0.0333,-0.20439 -0.0591,-0.11234 0.0139,-0.34715 0.16256,-0.52159 0.24491,-0.2877 0.27003,-0.2777 0.27003,0.10773 0,0.40655 0.0183,0.41054 0.4317,0.0926 0.23744,-0.18275 0.43171,-0.41082 0.43171,-0.50684 0,-0.0961 0.52225,-1.11238 1.16059,-2.25861 0.92356,-1.65843 1.17286,-1.99076 1.22082,-1.62731 0.0331,0.25119 -0.0425,0.58209 -0.16766,0.7353 -0.12552,0.15323 -0.57759,0.93633 -1.00497,1.74021 -0.42739,0.8039 -1.31308,2.20729 -1.96821,3.11864 -0.65514,0.91135 -1.28942,1.93085 -1.40958,2.26553 -0.12012,0.33468 -0.41941,0.88235 -0.66498,1.21703 -0.2456,0.33468 -0.44662,0.7093 -0.44674,0.83245 -1.2e-4,0.12318 -0.1854,0.45863 -0.41172,0.74548 -0.22631,0.28686 -0.48037,0.86366 -0.56454,1.28177 -0.0842,0.41813 -0.25047,0.79836 -0.3695,0.84497 -0.37279,0.146 -0.17909,-1.21823 0.26317,-1.85387 0.2232,-0.3208 0.35781,-0.63968 0.29912,-0.70864 -0.19784,-0.23232 -2.0897,2.68678 -3.07039,4.73742 -0.3816,0.79793 -0.48579,1.27393 -0.48377,2.21006 0.002,1.07888 0.40866,3.16184 0.71691,3.67503 0.0668,0.11151 0.17439,0.54514 0.23852,0.96348 0.0642,0.41837 0.19539,0.76065 0.29172,0.76065 0.0962,0 0.12598,-0.0931 0.0662,-0.20679 -0.0598,-0.11381 -0.0265,-0.50169 0.0738,-0.86207 0.10041,-0.3604 0.20316,-1.30801 0.22814,-2.10581 0.0251,-0.7978 0.0993,-1.41184 0.16501,-1.36452 0.0656,0.0473 0.10457,-0.30399 0.0862,-0.78068 -0.0206,-0.53913 0.0388,-0.85134 0.15725,-0.82602 0.11135,0.0238 0.15829,-0.15634 0.11304,-0.43366 -0.0425,-0.26089 0.0139,-0.67535 0.12628,-0.92101 0.11196,-0.24566 0.20356,-0.84342 0.20356,-1.32834 0,-0.67732 0.0567,-0.85612 0.2446,-0.77141 0.31124,0.14025 0.31013,0.17484 -0.0929,2.93106 -0.52545,3.59474 -0.55131,3.91702 -0.6086,7.58203 -0.0296,1.89654 -0.13598,3.81338 -0.23667,4.25962 -0.60858,2.70165 -0.82839,3.99117 -0.86435,5.07098 -0.0222,0.66938 -0.11704,2.2089 -0.21066,3.42118 -0.2276,2.94937 0.19785,7.45989 1.0168,10.77756 l 0.15015,0.60853 1.45193,-0.0526 c 1.34094,-0.0485 5.18066,-0.84903 6.15128,-1.28251 0.55685,-0.24868 0.56743,-0.24496 0.56743,0.199 0,0.31313 -0.23456,0.44639 -1.25196,0.71124 -2.26601,0.58993 -3.82189,0.89824 -5.26676,1.04367 -1.03223,0.10395 -1.42464,0.21998 -1.42464,0.42146 0,0.42952 -0.30915,0.32903 -0.54867,-0.17833 z M 198.28,136.35226 c 0,-0.16734 -0.0778,-0.24784 -0.17276,-0.17889 -0.095,0.069 -0.17276,0.26228 -0.17276,0.42961 0,0.16735 0.0778,0.24785 0.17276,0.17891 0.095,-0.069 0.17276,-0.26227 0.17276,-0.42963 z m 1.32672,-11.67733 c -0.0551,-0.16176 -0.0961,-0.11381 -0.10441,0.12251 -0.008,0.21385 0.0333,0.33365 0.0907,0.26625 0.0573,-0.0673 0.0634,-0.24235 0.0139,-0.38877 z M 44.508741,146.41338 c 0.05967,-0.11332 0.180795,-0.15355 0.269214,-0.0895 0.239519,0.17388 0.194865,0.29561 -0.108466,0.29561 -0.148056,0 -0.220395,-0.0928 -0.160742,-0.20616 z m 49.331024,-0.36486 c -0.21974,-0.0381 -0.74426,-0.4571 -1.1656,-0.9313 -0.68048,-0.7659 -0.76598,-0.96239 -0.76541,-1.75905 5.3e-4,-0.96622 0.45307,-2.05203 0.99753,-2.39429 0.17927,-0.11267 0.94576,-0.23119 1.70331,-0.26332 1.3254,-0.0562 1.40393,-0.0337 2.08189,0.59706 0.38751,0.36049 0.82038,0.99799 0.96199,1.41668 0.35101,1.03784 0.51689,2.72045 0.30501,3.09387 -0.15257,0.26909 -0.23003,0.26627 -0.66902,-0.0245 -0.32141,-0.21283 -0.59133,-0.26629 -0.76574,-0.15158 -0.34313,0.22554 -2.1588,0.50725 -2.68396,0.41643 z m 2.47214,-0.88313 c 0.0579,-0.068 -0.0143,-0.66091 -0.15807,-1.31752 -0.14481,-0.6566 -0.24635,-1.4654 -0.22554,-1.79728 l 0.0377,-0.60344 -1.12243,0.003 c -0.61734,0.001 -1.27784,0.0845 -1.46779,0.18412 -0.18996,0.0997 -0.44308,0.16258 -0.56251,0.13991 -0.11942,-0.0227 -0.29375,0.19548 -0.38739,0.48481 -0.22743,0.70263 0.17396,1.84467 0.91126,2.59278 0.50836,0.51579 0.65707,0.5593 1.71301,0.50108 0.63599,-0.0351 1.20372,-0.1194 1.26162,-0.18744 z m 1.35714,-0.27 c -0.0547,-0.16733 -0.12994,-0.30425 -0.16725,-0.30425 -0.0373,0 -0.0679,0.13697 -0.0679,0.30425 0,0.16735 0.0753,0.30427 0.16725,0.30427 0.092,0 0.12258,-0.13697 0.0679,-0.30427 z m 96.565775,-3.65109 c 0.0573,-0.22313 0.17397,-0.99899 0.25929,-1.72414 0.18562,-1.57806 0.5002,-3.07117 0.70306,-3.33669 0.21599,-0.28268 0.18377,0.17101 -0.10503,1.48186 -0.13875,0.62969 -0.28595,1.46438 -0.32711,1.85483 -0.0413,0.39047 -0.2007,1.02941 -0.35464,1.41989 -0.15384,0.39045 -0.23288,0.52738 -0.1756,0.30425 z m -17.06805,-0.73511 c 0.11704,-0.13861 0.25649,-0.20095 0.30967,-0.13844 0.0533,0.0624 -0.0427,0.17587 -0.21299,0.25204 -0.24609,0.11003 -0.26593,0.0867 -0.0967,-0.11348 z m 0.56411,-0.54666 c 0,-0.0914 -0.54395,-0.14304 -1.20878,-0.1148 -0.95507,0.0406 -1.20877,-0.01 -1.20877,-0.23952 0,-0.15997 -0.10703,-0.29093 -0.23787,-0.29093 -0.13075,0 -0.32797,-0.12745 -0.43805,-0.28334 -0.11011,-0.15585 -0.35274,-0.23643 -0.53919,-0.17916 -0.33346,0.10248 -0.47891,-0.22335 -0.19255,-0.43125 0.0806,-0.0585 0.0969,-0.45181 0.0365,-0.87404 -0.13306,-0.92772 -0.20932,-0.92491 -2.2212,0.0817 -0.78866,0.39464 -1.45998,0.68441 -1.49187,0.64395 -0.0319,-0.0404 -0.0958,-0.48435 -0.14215,-0.98639 -0.0464,-0.50202 -0.13844,-1.0655 -0.20516,-1.25217 -0.19601,-0.54977 0.48532,-0.83125 1.72633,-0.7131 0.5985,0.057 1.12837,0.0564 1.17753,-10e-4 0.17214,-0.20212 -1.17329,-2.0901 -1.48943,-2.0901 -0.17439,0 -0.55357,0.1437 -0.8426,0.31923 -1.01575,0.617 -0.79984,-0.25494 0.27905,-1.12687 0.54475,-0.44025 0.78077,-0.53213 0.92669,-0.36075 0.14584,0.17138 0.2953,0.1235 0.58657,-0.18825 0.72474,-0.77553 1.15993,-0.94592 1.49804,-0.58649 0.4153,0.44148 0.62539,0.40328 1.01962,-0.18543 l 0.33874,-0.50586 0.97974,0.69303 c 2.10895,1.49172 3.01363,1.18198 4.10627,-1.40587 0.39673,-0.93967 0.66979,-1.769 0.60683,-1.84297 -0.063,-0.0739 -0.8365,0.0131 -1.7189,0.19417 -0.88246,0.18076 -2.22608,0.37665 -2.98588,0.43532 -0.7598,0.0586 -1.99226,0.24169 -2.73883,0.40672 -0.74652,0.16505 -1.3876,0.30008 -1.42462,0.30008 -0.037,0 -0.0727,0.29664 -0.0793,0.65923 -0.0108,0.54006 -0.0373,0.5859 -0.15107,0.25355 -0.0765,-0.22312 -0.10518,-0.47414 -0.0641,-0.55782 0.13999,-0.28393 -0.55527,-0.15371 -1.86821,0.35001 -0.71985,0.27616 -1.72787,0.63557 -2.24006,0.79869 -0.51223,0.16307 -1.46494,0.5295 -2.1172,0.81419 -0.65223,0.28467 -1.42931,0.5589 -1.72681,0.60935 -0.58137,0.0987 -2.62922,0.6636 -4.85795,1.34023 -0.7598,0.23069 -2.04196,0.59285 -2.84925,0.80481 -0.80728,0.21195 -2.01174,0.52948 -2.67655,0.70562 -0.66483,0.17613 -1.59731,0.32606 -2.0722,0.33315 -0.47487,0.007 -1.44619,0.14895 -2.15851,0.31546 -1.67493,0.39131 -4.93667,0.38184 -6.38922,-0.0186 -0.61733,-0.17016 -2.01606,-0.68428 -3.10827,-1.14246 -1.0922,-0.4582 -2.98501,-1.15117 -4.20622,-1.53995 -1.22122,-0.38879 -2.34796,-0.78302 -2.50389,-0.87609 -1.30055,-0.77626 -4.50589,-2.41631 -5.94575,-3.04221 -3.57698,-1.55493 -5.59205,-2.4042 -6.76672,-2.85191 -0.66258,-0.25253 -2.21672,-0.9585 -3.45364,-1.56883 -1.23692,-0.61034 -2.6375,-1.28689 -3.11237,-1.50349 -0.47487,-0.21659 -1.09651,-0.51571 -1.38145,-0.66472 -0.28492,-0.14895 -0.82887,-0.39173 -1.20877,-0.5394 -0.3799,-0.14765 -0.76844,-0.33181 -0.8634,-0.40919 -0.0951,-0.0774 -1.10516,-0.56308 -2.24487,-1.07928 -1.13969,-0.51622 -2.69384,-1.22143 -3.45362,-1.56713 -0.75981,-0.34571 -2.02714,-0.98198 -2.8163,-1.41392 -0.78915,-0.43192 -1.46995,-0.78532 -1.51284,-0.78532 -0.0428,0 -0.446265,-0.18998 -0.896355,-0.42217 -1.70212,-0.87838 -1.98235,-1.01022 -3.02699,-1.4246 -0.58982,-0.23398 -1.73291,-0.64604 -2.5402,-0.91572 -1.41855,-0.47388 -2.52384,-0.93577 -3.15053,-1.31657 -0.1657,-0.10067 -1.17589,-0.19482 -2.24486,-0.20919 -1.5115,-0.0204 -2.44264,0.0961 -4.18844,0.52397 -1.23468,0.30256 -2.77606,0.67683 -3.4253,0.83172 -0.64923,0.15486 -1.4263,0.37068 -1.72681,0.47953 -0.30051,0.10888 -1.09033,0.39068 -1.75516,0.62626 -2.17026,0.76902 -4.41351,1.88723 -7.51165,3.74442 -3.61381,2.16628 -5.10875,3.08108 -5.87117,3.59273 -0.42739,0.28683 -1.24331,0.72817 -1.81315,0.98076 -0.56986,0.2526 -1.19151,0.53747 -1.38147,0.63306 -2.73972,1.37873 -9.560709,3.85066 -13.695027,4.96309 -0.979001,0.26342 -1.855875,0.53402 -1.948614,0.60135 -0.185465,0.13467 -1.505559,0.37021 -3.877818,0.69195 -0.850125,0.11528 -1.739958,0.25158 -1.977395,0.30285 -0.23744,0.0512 -1.325335,0.28006 -2.417546,0.50842 -2.670815,0.55842 -2.741419,0.57547 -2.918754,0.70421 -0.08501,0.0618 -0.469288,0.15864 -0.853945,0.21541 -0.384672,0.0567 -0.90415,0.19468 -1.154409,0.30644 -0.250253,0.11167 -0.509418,0.16373 -0.575924,0.11545 -0.0665,-0.0483 -0.856474,0.0859 -1.755489,0.2983 -0.899022,0.21235 -2.683621,0.52102 -3.965786,0.68593 -1.999937,0.25722 -3.206445,0.51767 -7.079943,1.52832 -0.332411,0.0867 -1.536868,0.44426 -2.676564,0.79449 -2.053001,0.6309 -4.528831,1.26903 -8.0296972,2.06959 -0.997238,0.22805 -2.512518,0.58706 -3.367292,0.79784 -0.854775,0.21077 -1.902789,0.4446 -2.328921,0.51961 -0.426132,0.075 -1.07698404,0.26163 -1.44633404,0.41469 -0.369352,0.15307 -0.856045,0.27832 -1.081542,0.27832 -0.68344896,0 -0.45942296,-0.52538 0.323905,-0.75962 0.403643,-0.1207 1.161284,-0.36267 1.68364404,-0.5377 0.522362,-0.17504 1.236665,-0.36912 1.587338,-0.43128 0.350674,-0.0622 1.088887,-0.25291 1.640475,-0.42383 0.551588,-0.17095 1.585688,-0.4407 2.298,-0.59947 0.712312,-0.15881 2.188739,-0.52096 3.2809492,-0.80486 1.092213,-0.28391 2.527441,-0.61135 3.1894,-0.72767 0.661958,-0.11627 1.322468,-0.28323 1.467793,-0.37089 0.145316,-0.0877 0.575065,-0.22367 0.954964,-0.30219 0.379899,-0.0785 1.662056,-0.41094 2.849244,-0.73867 1.187189,-0.32775 2.81903,-0.77709 3.626313,-0.99856 0.807289,-0.22146 1.778624,-0.44217 2.158523,-0.49048 0.379899,-0.0483 1.156966,-0.146 1.726812,-0.21698 0.569852,-0.0711 1.456712,-0.22407 1.970805,-0.34008 0.514093,-0.11595 1.563129,-0.33033 2.331199,-0.47628 0.768077,-0.146 2.523244,-0.54057 3.900381,-0.87695 2.508967,-0.61285 5.031815,-1.12511 6.648236,-1.3499 1.657472,-0.2305 2.771026,-0.45066 3.885335,-0.7682 0.617342,-0.17591 1.809615,-0.46711 2.649506,-0.64712 0.839885,-0.18001 1.850072,-0.45028 2.244862,-0.60061 0.39478,-0.15027 1.184029,-0.42438 1.753881,-0.60899 2.399255,-0.77731 4.366535,-1.52207 5.957515,-2.2554 0.33241,-0.15322 1.34232,-0.57491 2.24424,-0.93711 0.90192,-0.36221 2.37835,-1.10731 3.28095,-1.65577 4.18217,-2.54125 8.9055,-5.2451 10.79322,-6.17852 2.61155,-1.29131 7.83473,-2.84783 12.08772,-3.60213 1.47517,-0.26163 3.89361,-0.0907 4.89934,0.34652 1.06907,0.46465 1.46299,0.61891 4.25278,1.66542 1.04473,0.39192 2.56,1.043 3.36729,1.44687 0.80729,0.40388 1.813485,0.87579 2.235995,1.04869 0.42249,0.17292 0.92759,0.43289 1.12244,0.57772 0.37078,0.27566 1.08725,0.61477 4.93028,2.33367 1.28218,0.57347 2.68088,1.2097 3.10827,1.41384 0.42738,0.20415 1.63185,0.779 2.67658,1.27746 1.62131,0.77355 2.5718,1.25815 4.66239,2.37705 0.85371,0.45692 3.59891,1.62181 3.822,1.62181 0.26587,0 3.49513,1.4254 4.65075,2.05286 0.38615,0.20966 0.77704,0.38119 0.86864,0.38119 0.22273,0 2.83298,1.28707 4.13062,2.03673 0.57141,0.3301 1.08605,0.60018 1.14365,0.60018 0.0575,0 0.4837,0.20153 0.9469,0.44784 0.46323,0.24631 0.88105,0.45913 0.92853,0.47293 0.0475,0.0131 0.31947,0.0915 0.60441,0.17252 1.22105,0.34749 2.5431,0.82516 4.40336,1.59094 4.13998,1.70424 6.2684,2.07169 9.16159,1.58167 0.80209,-0.13582 2.12125,-0.31886 2.93148,-0.40664 0.8102,-0.0879 2.13121,-0.34911 2.93557,-0.5807 2.82844,-0.81436 5.96732,-1.6941 7.41997,-2.07959 3.08689,-0.81916 3.58159,-0.97268 4.99936,-1.5515 1.11223,-0.45405 1.3929,-0.63981 1.17981,-0.78085 -0.47172,-0.31222 -1.51396,-1.9865 -1.50414,-2.41629 0.008,-0.39471 0.0123,-0.39429 0.15421,0.0148 0.0798,0.23146 0.52218,0.90269 0.9832,1.49166 l 0.83825,1.07085 0.70524,-0.22307 c 0.38787,-0.12268 0.84784,-0.40815 1.02214,-0.6344 0.20859,-0.27074 0.35704,-0.33502 0.43436,-0.18803 0.0853,0.16209 0.31809,0.15979 0.84909,-0.008 1.00888,-0.31912 3.46114,-0.76481 5.01639,-0.91173 0.71232,-0.0673 2.17213,-0.26778 3.24406,-0.44549 l 1.94894,-0.32315 0.59705,-1.05656 c 0.32836,-0.5811 0.6428,-1.32532 0.69874,-1.65381 0.17377,-1.0202 -1.05273,-5.9568 -1.47988,-5.9568 -0.0645,0 -0.46014,-0.30815 -0.8794,-0.68481 -0.97928,-0.87985 -1.57345,-0.99611 -2.61838,-0.51231 -0.45825,0.21216 -1.10229,0.38577 -1.43117,0.38577 -0.7105,0 -1.37921,0.66054 -1.19667,1.18202 0.0653,0.18659 0.15828,0.71818 0.20658,1.18129 0.0753,0.7226 0.0326,0.8767 -0.30111,1.08651 -0.22869,0.1437 -0.65919,0.19373 -1.04495,0.1212 -0.5739,-0.10773 -0.67232,-0.066 -0.78627,0.33337 -0.13922,0.48869 -0.1001,1.3414 0.0772,1.67362 0.0596,0.11151 0.22961,0.62112 0.37802,1.13235 0.2964,1.02114 0.15481,1.75849 -0.53551,2.78938 -0.43622,0.65141 -0.42027,0.43773 0.0348,-0.46859 0.41183,-0.81993 0.3721,-1.41686 -0.18439,-2.76959 -0.1901,-0.46209 -0.30444,-0.91829 -0.25418,-1.01378 0.0502,-0.0956 0.0123,-0.33411 -0.0855,-0.53023 -0.0976,-0.19689 -0.17907,-0.24302 -0.18194,-0.10297 -0.005,0.13943 -0.0875,0.25355 -0.18805,0.25355 -0.10056,0 -0.13475,-0.0913 -0.0761,-0.20286 0.23288,-0.44259 -0.22345,-0.16695 -0.70159,0.4238 -0.27894,0.34465 -0.70145,0.74316 -0.93887,0.8856 -0.51554,0.30925 -2.1059,0.54145 -1.97252,0.288 0.0514,-0.0977 0.3802,-0.18134 0.73075,-0.18602 0.79912,-0.01 1.5519,-0.49055 2.24798,-1.4331 0.53397,-0.72301 0.53536,-0.73055 0.1172,-0.63666 -0.49886,0.112 -1.88695,-0.77156 -2.06412,-1.31388 -0.1272,-0.38971 -0.46907,-5.60226 -0.47579,-7.25691 -0.006,-1.19569 0.53143,-2.97092 1.24901,-4.1345 1.09338,-1.77298 3.55959,-3.06629 5.84706,-3.06629 0.95998,0 1.38307,0.14074 3.11202,1.03582 1.10053,0.56969 2.34397,1.34555 2.76319,1.72412 0.65049,0.58742 1.22361,0.87546 1.22361,0.61496 0,-0.0404 -0.22689,-0.66118 -0.50424,-1.37964 -0.99968,-2.58983 -1.2487,-6.44517 -0.6791,-10.514513 0.1952,-1.39451 0.42747,-2.69523 0.51617,-2.89044 0.0887,-0.19524 0.11874,-0.35498 0.0667,-0.35498 -0.0521,0 0.17235,-0.61612 0.49882,-1.36916 0.86707,-2.00059 2.15761,-3.0933 3.65335,-3.0933 1.63736,0 2.09222,0.66659 2.19534,3.21715 0.0805,1.99289 0.17561,2.32425 0.51446,1.79242 1.45428,-2.28295 3.06627,-3.92315 4.90996,-4.9958 1.4874,-0.86537 2.92736,-0.87948 4.03388,-0.0396 1.02092,0.77495 3.11912,3.37787 3.92709,4.87174 0.15745,0.29109 0.33661,0.57491 0.39814,0.63068 0.19008,0.17229 0.84587,1.70336 0.84587,1.97468 0,0.14107 0.0584,0.25651 0.12951,0.25646 0.15686,-1.2e-4 1.59734,-1.94039 1.59734,-2.15139 0,-0.0821 0.10549,-0.29333 0.23428,-0.46944 0.39885,-0.54509 0.60169,-1.99703 0.54278,-3.8857 -0.0564,-1.80196 -0.0547,-1.80978 0.36536,-1.80978 h 0.42178 l -0.0747,1.87625 c -0.13445,3.37758 -0.22155,3.60768 -2.44076,6.44016 -0.48075,0.61359 -0.97968,1.48073 -1.1088,1.92697 -0.72713,2.513803 -3.30562,6.039193 -6.40145,8.752323 -1.76118,1.54345 -2.38113,2.02022 -4.66242,3.58562 -3.23778,2.22176 -3.74317,2.51949 -4.49873,2.6503 -1.00704,0.17436 -2.01251,-0.27896 -2.16108,-0.97433 -0.16746,-0.78344 -2.78366,-3.41007 -4.47814,-4.49591 -1.88925,-1.21066 -2.44036,-1.50584 -2.81135,-1.50584 -0.23733,0 -0.53004,-0.15832 -0.65047,-0.3517 -0.16317,-0.26199 -0.47111,-0.3525 -1.20798,-0.35496 -0.9565,-0.003 -0.99077,0.0148 -1.04119,0.56465 -0.0288,0.31236 -0.19294,0.83211 -0.36518,1.15502 -1.26663,2.37537 -1.25896,2.35381 -1.05844,2.97784 0.2766,0.86084 0.0453,1.99355 -0.51298,2.51099 -0.36768,0.34083 -0.62908,0.41316 -1.21533,0.33624 -0.53114,-0.0696 -0.77292,-0.0184 -0.83699,0.17776 -0.0496,0.15174 -0.47454,0.55363 -0.94445,0.89327 l -0.85435,0.6175 0.10949,2.07541 c 0.10549,2.00054 0.1289,2.09553 0.64874,2.63323 0.72665,0.75168 1.47104,0.74118 2.17447,-0.0307 0.32245,-0.35381 0.53633,-0.79005 0.53633,-1.09392 0,-0.27799 0.11673,-0.55796 0.25901,-0.62219 0.146,-0.0659 0.25903,-0.36778 0.25903,-0.69193 0,-0.6488 0.91177,-2.4719 1.24814,-2.49566 0.12074,-0.008 0.35564,-0.0462 0.52185,-0.0834 0.53069,-0.1194 0.32347,0.46695 -0.21409,0.60564 -0.56579,0.146 -0.80386,0.61259 -1.31242,2.57252 -0.28062,1.08142 -0.2811,1.18421 -0.008,1.67341 0.2817,0.50502 0.85962,0.69896 1.04318,0.35007 0.0496,-0.0941 0.008,-0.51553 -0.0898,-0.93641 -0.36472,-1.55163 0.21173,-2.44108 1.72601,-2.6633 0.53391,-0.0783 1.2427,-0.308 1.5751,-0.51032 0.7738,-0.47096 1.60544,-0.27323 2.79509,0.66458 1.04031,0.82005 1.3833,1.5542 1.87471,4.01278 0.46958,2.34958 0.39441,3.38164 -0.33305,4.57148 -0.61659,1.00854 -0.65833,1.25362 -0.23556,1.38338 0.23431,0.0719 0.21754,0.098 -0.0744,0.11627 -0.29088,0.0181 -0.5419,0.40496 -1.10132,1.69695 -0.93485,2.15914 -1.07795,2.38903 -1.81076,2.90855 -0.50153,0.35555 -0.74183,0.40434 -1.33785,0.27173 -0.86387,-0.19224 -1.9546,-0.70836 -2.10631,-0.99668 -0.0596,-0.11332 -0.22275,-0.20591 -0.3626,-0.20591 -0.50745,0 -0.44824,0.64073 0.16746,1.81253 0.34387,0.65439 0.62519,1.26847 0.62519,1.36465 0,0.0962 -0.17479,0.26517 -0.38853,0.37553 -0.25173,0.13006 -0.38316,0.36712 -0.37327,0.67343 0.008,0.28541 -0.14476,0.59595 -0.38853,0.78356 -0.27179,0.20917 -0.4038,0.50583 -0.4038,0.90743 v 0.59664 l 0.53413,-0.36641 c 0.29377,-0.20155 0.79887,-0.70901 1.12244,-1.12768 0.41253,-0.53378 0.5883,-0.65866 0.5883,-0.41793 0,0.18881 -0.40085,0.77844 -0.89074,1.31027 -0.97593,1.05941 -0.97148,1.30989 0.032,1.79816 0.67406,0.32796 1.19487,-0.0593 1.68851,-1.25548 0.19886,-0.48214 0.36561,-0.71507 0.37037,-0.51762 0.006,0.19745 -0.18214,0.71407 -0.41545,1.14806 -0.46549,0.86613 -0.36486,1.03142 0.51039,0.8384 0.41556,-0.0916 0.61196,-0.33206 0.99293,-1.21551 0.26117,-0.60571 0.47437,-0.97082 0.47378,-0.81136 0,0.15947 -0.11842,0.55452 -0.26209,0.87791 -0.14353,0.32339 -0.21665,0.64012 -0.16237,0.70384 0.16114,0.18914 1.66407,-0.83408 2.27002,-1.54538 0.3089,-0.36257 0.62899,-0.65923 0.71134,-0.65923 0.0824,0 0.43464,-0.48589 0.78283,-1.07976 0.43292,-0.73835 0.63309,-1.3039 0.63309,-1.78872 0,-0.38994 0.12197,-1.1911 0.27084,-1.78035 0.14892,-0.58923 0.22913,-1.19911 0.17806,-1.35526 -0.051,-0.15617 -0.0203,-0.28391 0.0687,-0.28391 0.0889,0 0.50337,-0.79869 0.9211,-1.77485 1.61975,-3.78501 2.12766,-4.7834 2.35096,-4.62128 0.0684,0.0496 0.58412,-0.13171 1.14604,-0.4031 1.59707,-0.77123 2.48707,-0.63543 4.13056,0.63025 0.79475,0.61206 2.67596,3.19221 2.67596,3.67021 0,0.11283 0.13599,0.51588 0.30219,0.89559 0.22535,0.51484 0.30219,1.18039 0.30219,2.61737 0,1.44131 0.0616,1.97259 0.24445,2.10796 0.20435,0.15126 0.19398,0.22442 -0.0636,0.44564 -0.21155,0.1817 -0.30506,0.52228 -0.29844,1.08674 0.006,0.45216 -0.071,0.82211 -0.1695,0.82211 -0.10641,0 -0.15418,-0.37058 -0.1175,-0.91281 0.0687,-1.01513 0.22173,-0.90726 -1.71603,-1.2098 -0.40659,-0.0634 -1.80531,-0.51611 -3.10826,-1.00583 -2.8174,-1.05892 -5.87314,-1.86294 -6.09407,-1.60343 -0.21082,0.24767 -0.50565,2.14828 -0.50565,3.25996 0,0.70432 -0.0553,0.88187 -0.24771,0.79513 -0.15685,-0.0708 -0.37627,0.14435 -0.59857,0.58681 l -0.35082,0.69849 h 0.57896 c 0.55895,0 0.58303,0.0334 0.69727,0.96349 0.065,0.52992 0.1599,1.16801 0.21061,1.41799 0.13475,0.6638 -0.29705,0.75975 -1.21312,0.26954 -0.43146,-0.23089 -1.02186,-0.41979 -1.312,-0.41979 -0.59172,0 -0.70762,-0.31117 -0.18805,-0.50488 0.31449,-0.11726 1.0332,0.0471 1.78807,0.40865 0.28267,0.13548 0.30232,0.0711 0.195,-0.63722 -0.0658,-0.43332 -0.18194,-0.86763 -0.25811,-0.96517 -0.21707,-0.27761 -1.05333,0.15322 -2.07899,1.07114 -0.51429,0.46025 -1.24591,0.94214 -1.62582,1.07089 -0.37989,0.12875 -0.85113,0.40109 -1.04722,0.60526 -0.38299,0.39881 -0.59325,0.47148 -0.59325,0.20505 z m -5.0941,-3.17782 c 0.75978,-0.38107 1.26487,-0.69944 1.12242,-0.70752 -0.1426,-0.009 -0.90011,-0.0696 -1.68365,-0.13664 -0.90344,-0.0773 -1.42461,-0.0478 -1.42461,0.0808 0,0.60725 0.24166,1.46954 0.4101,1.46337 0.10688,-0.005 0.81592,-0.3189 1.57574,-0.69995 z m 2.29404,-2.04716 c 0.0271,-0.21438 -0.18071,-0.70927 -0.46165,-1.09974 -0.42068,-0.58461 -0.5647,-0.67156 -0.81598,-0.4926 -0.5031,0.35835 -0.46076,0.61574 0.22733,1.38165 0.70094,0.7802 0.97159,0.8345 1.0503,0.21069 z m 20.33655,-1.78097 c 0.15928,-0.7453 -0.21479,-3.39192 -0.62126,-4.39611 -0.69704,-1.72204 -0.89894,-2.07733 -1.67934,-2.95569 -1.50694,-1.69608 -3.03267,-2.32133 -4.38086,-1.79532 -0.73898,0.2883 -2.04827,1.42863 -2.04827,1.78394 0,0.078 -0.1905,0.4961 -0.42317,0.92918 -0.44537,0.82872 -1.649,3.54033 -1.649,3.71496 0,0.12629 1.01425,0.42697 2.93556,0.87022 0.8073,0.18624 2.15075,0.61246 2.98544,0.94717 1.65861,0.66511 3.78616,1.3226 4.39342,1.35774 0.26915,0.0164 0.41607,-0.12185 0.48748,-0.45609 z m -22.88963,-10.84235 c 0,-0.0905 0.16317,-0.37039 0.36274,-0.62192 0.19948,-0.25155 0.31526,-0.5131 0.25723,-0.58125 -0.10457,-0.12301 -0.46382,0.33082 -0.80164,1.01279 -0.12012,0.24249 -0.1192,0.35498 0.005,0.35498 0.0983,0 0.17867,-0.0741 0.17867,-0.1646 z m -2.19033,-7.16798 c 0.68471,-0.42333 0.87915,-1.18667 0.30227,-1.18667 -0.26195,0 -0.31704,-0.10937 -0.25564,-0.5071 0.0554,-0.35877 0.001,-0.50709 -0.18419,-0.50709 -0.38631,0 -0.32913,-0.92089 0.11489,-1.84864 0.31211,-0.65235 0.46992,-0.78827 0.9152,-0.78827 0.29593,0 0.61187,0.0842 0.70211,0.18706 0.0901,0.10281 0.43601,0.24171 0.76842,0.3085 0.58461,0.11742 0.62333,0.0844 1.18366,-1.01255 0.31858,-0.6237 0.61901,-1.48214 0.66758,-1.90762 l 0.0883,-0.7736 -0.88701,0.27027 c -1.25972,0.38384 -2.54773,1.26126 -3.23402,2.20306 -0.92395,1.26792 -1.49463,3.88731 -1.16333,5.33946 0.1155,0.50638 0.414,0.57424 0.98178,0.22319 z m 18.33607,-1.26165 c 1.57647,-0.87038 6.19244,-4.19609 7.85701,-5.66083 2.46288,-2.16718 4.60498,-4.81424 5.42461,-6.70339 0.37174,-0.85678 0.61793,-1.625843 0.54712,-1.709043 -0.0708,-0.0833 -0.22814,0.008 -0.34955,0.20338 -0.12136,0.195053 -0.27051,0.354633 -0.33125,0.354633 -0.2533,0 -0.0775,-0.407843 0.40757,-0.945623 0.9336,-1.03507 0.67346,-1.98802 -1.40507,-5.14735 -2.95012,-4.48415 -4.03698,-5.07176 -6.53212,-3.53163 -1.63017,1.00624 -3.12283,2.56276 -4.25501,4.4371 l -0.97107,1.60759 0.10364,1.6795 c 0.11027,1.789303 0.0365,2.306113 -0.32922,2.306113 -0.14754,0 -0.27085,-0.40171 -0.34906,-1.137003 l -0.1209,-1.13701 -0.40331,0.5792 c -0.22183,0.31856 -0.40613,0.73353 -0.40954,0.92218 -0.005,0.18865 -0.0702,0.389373 -0.14815,0.446043 -0.19948,0.14485 -0.99232,2.64384 -1.2619,3.97769 -0.12428,0.61485 -0.22796,2.32184 -0.23107,3.80296 -0.005,1.47804 -0.0524,2.68746 -0.10965,2.68761 -0.0573,1.5e-4 0.002,0.47656 0.12952,1.05868 0.12844,0.58212 0.23373,1.26217 0.23373,1.51121 0,0.95786 1.1568,1.14173 2.50388,0.39799 z m -15.18376,-1.29418 c -0.13399,-0.66974 -0.85116,-1.47058 -1.31698,-1.47058 -0.53563,0 -0.38927,0.53132 0.27278,0.99016 0.33468,0.23195 0.65383,0.56044 0.7092,0.72998 0.17745,0.54331 0.45258,0.33839 0.335,-0.24956 z m 11.65551,-3.13123 c -0.0214,-2.4165 0.26065,-4.98322 0.69777,-6.3515 0.51703,-1.61843 1.67973,-4.527393 2.07959,-5.202913 0.2868,-0.48455 0.30691,-0.81478 0.20356,-3.34555 -0.11072,-2.71229 -0.1309,-2.82701 -0.59061,-3.36706 -0.82531,-0.96945 -1.90305,-0.69606 -3.12741,0.79336 -0.86961,1.05786 -1.28793,2.26615 -1.79754,5.19225 -0.32024,1.83879 -0.42966,3.085463 -0.42242,4.812643 0.008,2.15174 0.0397,2.6286 0.26072,4.05843 0.12628,0.81697 0.55581,2.26241 0.96436,3.24543 0.41297,0.99371 1.56953,2.88156 1.68341,2.74781 0.0388,-0.0457 0.0608,-1.20796 0.0485,-2.5829 z m -13.4809,21.94455 c 0,-0.11151 0.0822,-0.20284 0.18296,-0.20284 0.10056,0 0.13475,0.0913 0.0761,0.20284 -0.0587,0.11151 -0.14091,0.20284 -0.18295,0.20284 -0.042,0 -0.0761,-0.0913 -0.0761,-0.20284 z m -95.936325,-3.16701 c 0.14196,-0.41891 0.16733,-0.59317 0.35838,-2.46174 0.0713,-0.69728 0.19729,-1.26776 0.28,-1.26776 0.18769,0 0.18724,0.0208 -0.0358,1.62272 -0.10096,0.72515 -0.1987,1.53951 -0.21718,1.80968 -0.0186,0.27017 -0.14194,0.53364 -0.27433,0.58549 -0.1757,0.0688 -0.2057,-0.01 -0.11105,-0.28839 z m 94.554885,0.13648 c 0,-0.10494 0.0768,-0.24666 0.17071,-0.31481 0.0979,-0.0711 0.1269,0.01 0.0679,0.19086 -0.11489,0.3514 -0.23857,0.4157 -0.23857,0.124 z m -0.0862,-1.02618 c -0.0587,-0.11151 0.0139,-0.20284 0.16256,-0.20284 0.148,0 0.26922,0.0913 0.26922,0.20284 0,0.11151 -0.0732,0.20284 -0.16255,0.20284 -0.0893,0 -0.21052,-0.0913 -0.26923,-0.20284 z m -4.21708,-0.32117 c 0.008,-0.23629 0.0491,-0.28436 0.10442,-0.12251 0.0499,0.14649 0.0436,0.32138 -0.0139,0.38878 -0.0573,0.0673 -0.0981,-0.0524 -0.0907,-0.26623 z m 5.46417,-0.92058 c 0.10642,-0.12514 0.14769,-0.36833 0.0916,-0.54037 -0.0671,-0.20539 -0.0328,-0.26245 0.0998,-0.16617 0.31396,0.22793 0.24477,0.9341 -0.0916,0.9341 -0.21697,0 -0.24303,-0.0595 -0.0999,-0.22756 z m 0.2207,-1.76702 c 0,-0.35329 0.0792,-0.64233 0.17603,-0.64233 0.10441,0 0.12966,0.22666 0.0621,0.5578 -0.16255,0.79636 -0.23803,0.82311 -0.23803,0.0846 z m 33.41389,-19.1007 c -0.0587,-0.11151 -0.0245,-0.20283 0.0761,-0.20283 0.10056,0 0.18295,0.0913 0.18295,0.20283 0,0.11152 -0.0343,0.20284 -0.0761,0.20284 -0.0417,0 -0.12428,-0.0913 -0.18295,-0.20284 z"
       id="path21"
       inkscape:connector-curvature="0" />
  </g>
</svg>
